<?xml version="1.0" standalone="no"?>
<!DOCTYPE svg PUBLIC "-//W3C//DTD SVG 20010904//EN"
 "http://www.w3.org/TR/2001/REC-SVG-20010904/DTD/svg10.dtd">
<svg version="1.0" xmlns="http://www.w3.org/2000/svg"
 width="296.000000pt" height="380.000000pt" viewBox="0 0 296.000000 380.000000"
 preserveAspectRatio="xMidYMid meet">

<g transform="translate(0.000000,380.000000) scale(0.100000,-0.100000)"
fill="#000000" stroke="none">
<path d="M1424 3286 c-64 -29 -183 -206 -184 -274 0 -9 -21 -48 -45 -87 -25
-38 -54 -88 -65 -110 -53 -104 -155 -237 -201 -261 -16 -8 -43 -43 -67 -87
-24 -43 -50 -78 -64 -84 -37 -17 -169 -250 -167 -296 0 -17 3 -14 13 13 15 40
86 159 122 205 58 72 94 115 169 198 173 193 248 301 304 442 78 194 115 251
191 290 51 27 141 31 196 10 114 -43 176 -143 210 -335 25 -140 52 -216 159
-445 89 -189 109 -265 103 -374 -6 -102 -33 -159 -111 -235 -130 -126 -347
-199 -632 -212 -148 -7 -268 5 -409 40 -226 58 -335 148 -336 279 0 44 -2 47
-25 47 -31 0 -75 -41 -75 -71 0 -20 2 -19 35 10 20 17 40 31 45 31 6 0 10 -23
10 -51 0 -50 0 -51 -27 -47 -16 3 -36 9 -46 13 -9 4 -17 3 -17 -2 0 -5 14 -14
31 -20 17 -7 28 -16 26 -20 -3 -5 -2 -15 4 -23 7 -12 9 -10 9 8 0 12 4 22 9
22 9 0 21 -48 21 -84 0 -12 7 -31 15 -42 13 -18 14 -18 8 6 -5 23 -3 23 28
-10 68 -71 185 -129 292 -144 53 -8 51 -6 36 -39 l-11 -24 -76 22 c-103 29
-173 66 -222 117 -22 23 -40 36 -40 29 0 -23 80 -89 143 -119 34 -16 92 -37
130 -47 71 -19 80 -30 47 -60 -11 -10 -20 -24 -20 -31 0 -7 -6 -14 -12 -16
-18 -6 5 -53 33 -68 21 -12 21 -11 5 11 -23 33 -20 72 7 97 31 29 76 28 109
-3 33 -30 42 -58 28 -85 -10 -18 -8 -20 19 -20 18 0 38 9 51 22 24 26 18 38
-8 15 -34 -31 -31 -18 4 17 50 50 50 105 -1 154 -27 25 -43 32 -72 31 l-38 -1
45 -9 c76 -15 116 -91 75 -145 -13 -17 -13 -16 -3 12 22 61 -36 133 -98 121
-13 -2 -21 0 -18 4 12 20 -17 7 -42 -18 -26 -27 -27 -27 -12 -3 8 14 30 33 47
44 28 16 37 17 76 6 53 -15 80 -43 89 -93 4 -21 10 -46 13 -55 4 -15 3 -15 -7
-2 -10 13 -11 11 -7 -8 3 -14 1 -20 -5 -16 -6 4 -9 1 -6 -6 9 -28 27 -20 38
17 l12 38 96 2 c240 5 476 64 607 153 38 26 87 74 135 130 l21 25 -12 -25 c-7
-14 -23 -42 -36 -63 -13 -21 -28 -61 -33 -90 -8 -42 -18 -59 -49 -87 -100 -92
-303 -147 -581 -159 -178 -8 -174 -13 10 -13 147 0 249 11 277 28 12 8 30 14
39 14 27 0 185 56 252 90 40 20 67 40 75 57 9 21 9 27 -1 31 -14 4 -16 40 -3
60 15 25 51 -7 52 -48 l2 -35 6 35 6 35 78 0 77 0 0 33 c0 18 7 49 15 69 19
46 19 66 -1 30 -8 -16 -18 -47 -22 -70 l-8 -42 -79 -3 c-57 -2 -86 1 -99 11
-19 14 -19 16 12 70 21 36 32 70 32 94 l0 38 -29 -49 c-54 -92 -151 -172 -261
-214 -184 -72 -567 -122 -584 -76 -15 40 -11 41 147 46 254 8 457 72 595 187
63 52 124 134 137 181 3 14 -8 1 -25 -29 -121 -205 -356 -310 -734 -328 -114
-5 -141 -4 -150 8 -6 8 -23 24 -38 35 l-27 21 187 6 c166 4 200 8 302 35 256
68 395 168 448 326 15 44 22 55 29 43 14 -27 4 132 -13 198 -9 33 -27 80 -40
105 -13 25 -24 52 -24 60 0 8 -18 55 -40 105 -22 49 -40 97 -40 106 0 10 -5
21 -10 24 -7 4 -8 -3 -4 -22 10 -42 -1 -26 -31 47 -29 68 -69 216 -81 298 -3
26 -19 79 -34 117 -15 39 -31 84 -36 100 -6 19 -21 36 -41 46 -18 9 -38 21
-45 27 -47 38 -212 62 -264 38z m-751 -1497 c62 -58 250 -129 385 -148 53 -7
55 -8 25 -15 -17 -4 -37 -14 -44 -22 -17 -21 -60 -17 -152 13 -135 44 -215
101 -258 185 -23 46 -24 72 -1 38 9 -14 30 -37 45 -51z m538 -216 c13 -16 12
-17 -3 -4 -10 7 -18 15 -18 17 0 8 8 3 21 -13z m-62 -40 c30 -25 34 -76 9
-108 -21 -27 -38 -25 -38 5 0 23 -52 62 -86 64 -29 1 -30 10 -4 36 25 25 90
27 119 3z"/>
<path d="M1518 3112 c-16 -2 -42 -20 -65 -45 -38 -42 -54 -81 -112 -273 -33
-110 -86 -180 -297 -395 -63 -64 -114 -121 -114 -127 0 -7 -4 -12 -8 -12 -11
0 -83 -104 -116 -166 -50 -95 -47 -176 7 -226 104 -96 368 -160 597 -143 114
8 280 50 360 90 193 97 245 233 159 420 -146 321 -177 403 -195 525 -41 272
-98 366 -216 352z m97 -43 c20 -18 34 -38 31 -46 -3 -7 4 -23 17 -36 20 -20
20 -22 4 -25 -23 -5 -18 -38 5 -36 12 1 19 -10 23 -40 39 -241 56 -293 184
-576 33 -74 64 -151 67 -169 l7 -35 -34 24 c-51 37 -148 80 -177 79 -23 0 -21
-2 13 -13 74 -24 130 -53 169 -88 l39 -34 -18 -59 c-31 -110 -144 -191 -334
-243 -86 -23 -115 -26 -276 -26 -204 -1 -288 13 -410 69 -63 29 -135 85 -135
105 0 8 37 35 77 57 67 35 81 43 118 59 43 19 284 99 435 144 52 16 84 29 71
29 -30 1 -308 -86 -451 -141 -58 -22 -136 -58 -174 -79 -38 -22 -71 -37 -75
-34 -20 21 33 171 73 204 9 8 16 18 16 23 0 15 102 131 239 274 183 189 204
224 271 443 17 57 41 118 53 136 47 72 114 85 172 34z"/>
<path d="M1655 2879 c-10 -15 1 -23 20 -15 9 3 13 10 10 16 -8 13 -22 13 -30
-1z"/>
<path d="M1685 2390 c-7 -12 2 -30 16 -30 5 0 9 9 9 20 0 21 -15 27 -25 10z"/>
<path d="M1650 2319 c0 -24 23 -21 28 4 2 10 -3 17 -12 17 -10 0 -16 -9 -16
-21z"/>
<path d="M1721 2326 c-9 -10 -9 -16 -1 -21 16 -10 31 7 21 23 -6 10 -10 10
-20 -2z"/>
<path d="M1612 2273 c5 -25 28 -28 28 -4 0 12 -6 21 -16 21 -9 0 -14 -7 -12
-17z"/>
<path d="M1675 2270 c-3 -6 1 -13 10 -16 19 -8 30 0 20 15 -8 14 -22 14 -30 1z"/>
<path d="M1745 2260 c-8 -13 4 -32 16 -25 12 8 12 35 0 35 -6 0 -13 -4 -16
-10z"/>
<path d="M1563 2213 c26 -2 68 -2 95 0 26 2 4 3 -48 3 -52 0 -74 -1 -47 -3z"/>
<path d="M2132 1985 c0 -16 2 -22 5 -12 2 9 2 23 0 30 -3 6 -5 -1 -5 -18z"/>
<path d="M2160 1840 c-11 -7 -4 -10 28 -10 23 0 58 -7 77 -14 39 -17 47 -5 13
18 -25 18 -95 21 -118 6z"/>
<path d="M2198 1783 c6 -2 18 -2 25 0 6 3 1 5 -13 5 -14 0 -19 -2 -12 -5z"/>
<path d="M2165 1680 c3 -5 12 -10 20 -10 8 0 17 5 20 10 4 6 -5 10 -20 10 -15
0 -24 -4 -20 -10z"/>
<path d="M640 1597 c0 -25 70 -91 127 -120 78 -40 78 -33 0 14 -39 23 -81 58
-98 81 -16 23 -29 34 -29 25z"/>
<path d="M2168 1553 c6 -2 18 -2 25 0 6 3 1 5 -13 5 -14 0 -19 -2 -12 -5z"/>
<path d="M988 1449 c-18 -10 -24 -54 -10 -76 27 -42 105 -29 110 19 6 50 -54
84 -100 57z"/>
<path d="M1204 1403 c3 -6 2 -14 -4 -18 -5 -3 -10 -11 -10 -18 0 -6 7 -4 17 6
14 14 15 19 4 29 -9 9 -12 9 -7 1z"/>
</g>
</svg>
