<?xml version="1.0" standalone="no"?>
<!DOCTYPE svg PUBLIC "-//W3C//DTD SVG 20010904//EN"
 "http://www.w3.org/TR/2001/REC-SVG-20010904/DTD/svg10.dtd">
<svg version="1.0" xmlns="http://www.w3.org/2000/svg"
 width="380.000000pt" height="380.000000pt" viewBox="0 0 380.000000 380.000000"
 preserveAspectRatio="xMidYMid meet">

<g transform="translate(0.000000,380.000000) scale(0.100000,-0.100000)"
fill="#000000" stroke="none">
<path d="M1720 3660 c-730 -49 -1355 -436 -1580 -981 -58 -139 -83 -267 -84
-424 0 -149 10 -221 51 -350 128 -408 512 -771 1000 -946 48 -17 146 -46 216
-64 70 -17 127 -36 127 -41 -1 -5 -153 -150 -338 -322 -185 -172 -343 -322
-351 -333 -13 -18 -12 -22 6 -40 20 -20 20 -20 274 97 258 118 899 418 1154
539 77 36 194 82 260 101 195 57 292 94 435 166 374 188 635 472 751 819 43
128 58 223 59 362 1 611 -497 1151 -1244 1348 -219 57 -503 84 -736 69z m485
-95 c825 -126 1415 -676 1415 -1318 0 -466 -301 -891 -800 -1131 -124 -60
-363 -143 -439 -153 -25 -3 -64 -16 -86 -29 -52 -29 -1277 -605 -1281 -601 -1
1 121 117 273 257 152 140 282 261 289 268 21 20 17 51 -8 61 -13 5 -75 19
-138 31 -236 45 -510 156 -705 288 -379 256 -595 622 -595 1007 0 305 128 588
374 830 121 119 250 210 421 295 218 109 470 182 720 209 126 14 429 6 560
-14z"/>
</g>
</svg>
