<?xml version="1.0" standalone="no"?>
<!DOCTYPE svg PUBLIC "-//W3C//DTD SVG 20010904//EN"
 "http://www.w3.org/TR/2001/REC-SVG-20010904/DTD/svg10.dtd">
<svg version="1.0" xmlns="http://www.w3.org/2000/svg"
 width="571.000000pt" height="380.000000pt" viewBox="0 0 571.000000 380.000000"
 preserveAspectRatio="xMidYMid meet">

<g transform="translate(0.000000,380.000000) scale(0.100000,-0.100000)"
fill="#000000" stroke="none">
<path d="M2625 2805 c-244 -30 -469 -139 -642 -312 -172 -171 -237 -316 -237
-528 0 -211 62 -349 234 -526 44 -46 80 -86 80 -91 0 -44 -152 -194 -243 -239
-64 -32 -82 -48 -69 -61 4 -4 41 -20 82 -35 69 -24 87 -26 225 -26 141 1 156
3 245 32 52 18 133 52 179 77 l85 45 120 -12 c196 -19 462 6 616 57 84 28 212
91 280 137 90 61 223 183 266 243 48 68 93 168 114 254 18 75 16 231 -4 306
-42 159 -207 382 -359 486 -94 64 -268 138 -422 179 -96 25 -397 33 -550 14z
m505 -50 c405 -89 704 -336 781 -645 8 -30 13 -100 13 -155 -1 -117 -30 -218
-94 -325 -201 -338 -702 -537 -1171 -465 -106 16 -121 17 -136 3 -30 -25 -130
-77 -196 -102 -98 -36 -187 -49 -301 -43 -97 5 -196 24 -196 37 0 4 11 12 25
18 36 17 124 84 162 124 31 32 93 140 93 162 0 6 -36 44 -80 84 -160 146 -233
296 -246 502 -6 87 -4 103 24 188 17 51 49 124 71 162 140 235 425 410 761
465 112 19 386 13 490 -10z"/>
</g>
</svg>
