<?xml version="1.0" standalone="no"?>
<!DOCTYPE svg PUBLIC "-//W3C//DTD SVG 20010904//EN"
 "http://www.w3.org/TR/2001/REC-SVG-20010904/DTD/svg10.dtd">
<svg version="1.0" xmlns="http://www.w3.org/2000/svg"
 width="380.000000pt" height="380.000000pt" viewBox="0 0 380.000000 380.000000"
 preserveAspectRatio="xMidYMid meet">

<g transform="translate(0.000000,380.000000) scale(0.100000,-0.100000)"
fill="#000000" stroke="none">
<path d="M595 3576 c-145 -34 -264 -104 -376 -224 -84 -89 -124 -157 -166
-282 -25 -76 -28 -99 -28 -215 0 -149 18 -225 86 -355 120 -232 388 -388 651
-378 43 1 78 -1 78 -5 0 -4 0 -11 0 -15 0 -5 -18 -33 -41 -63 -92 -122 -160
-263 -202 -414 -19 -69 -22 -106 -22 -275 0 -182 2 -202 28 -295 32 -117 109
-282 175 -375 25 -36 82 -101 127 -146 301 -301 743 -407 1140 -271 300 103
567 350 686 636 101 243 115 513 40 782 -16 57 -28 107 -25 110 2 4 34 -4 72
-17 241 -83 496 -38 698 124 299 241 353 696 121 1009 -95 127 -281 246 -437
279 -211 45 -456 -22 -615 -168 -185 -169 -277 -410 -245 -637 5 -40 8 -77 5
-82 -3 -5 -35 10 -70 32 -77 48 -203 101 -312 130 -122 33 -355 38 -492 9 -57
-11 -106 -18 -109 -16 -3 3 11 41 31 83 60 130 72 183 72 323 0 103 -4 138
-23 200 -78 246 -241 410 -500 502 -75 26 -261 34 -347 14z"/>
</g>
</svg>
